<?xml version="1.0" encoding="UTF-8" standalone="no"?><svg xmlns:svg="http://www.w3.org/2000/svg" xmlns="http://www.w3.org/2000/svg" xmlns:xlink="http://www.w3.org/1999/xlink" version="1.0" width="256px" height="256px" viewBox="0 0 128 128" xml:space="preserve"><g><path d="M64 .37a2.04 2.04 0 0 1 2.04 2.04v41.1a2.04 2.04 0 0 1-4.08 0V2.4A2.04 2.04 0 0 1 64 .38z" fill="#000000"/><path d="M64 .37a2.04 2.04 0 0 1 2.04 2.04v41.1a2.04 2.04 0 0 1-4.08 0V2.4A2.04 2.04 0 0 1 64 .38z" fill="#b2b2b2" transform="rotate(18 64 64)"/><path d="M64 .37a2.04 2.04 0 0 1 2.04 2.04v41.1a2.04 2.04 0 0 1-4.08 0V2.4A2.04 2.04 0 0 1 64 .38z" fill="#b2b2b2" transform="rotate(36 64 64)"/><path d="M64 .37a2.04 2.04 0 0 1 2.04 2.04v41.1a2.04 2.04 0 0 1-4.08 0V2.4A2.04 2.04 0 0 1 64 .38z" fill="#b2b2b2" transform="rotate(54 64 64)"/><path d="M64 .37a2.04 2.04 0 0 1 2.04 2.04v41.1a2.04 2.04 0 0 1-4.08 0V2.4A2.04 2.04 0 0 1 64 .38z" fill="#b2b2b2" transform="rotate(72 64 64)"/><path d="M64 .37a2.04 2.04 0 0 1 2.04 2.04v41.1a2.04 2.04 0 0 1-4.08 0V2.4A2.04 2.04 0 0 1 64 .38z" fill="#b2b2b2" transform="rotate(90 64 64)"/><path d="M64 .37a2.04 2.04 0 0 1 2.04 2.04v41.1a2.04 2.04 0 0 1-4.08 0V2.4A2.04 2.04 0 0 1 64 .38z" fill="#b2b2b2" transform="rotate(108 64 64)"/><path d="M64 .37a2.04 2.04 0 0 1 2.04 2.04v41.1a2.04 2.04 0 0 1-4.08 0V2.4A2.04 2.04 0 0 1 64 .38z" fill="#a6a6a6" transform="rotate(126 64 64)"/><path d="M64 .37a2.04 2.04 0 0 1 2.04 2.04v41.1a2.04 2.04 0 0 1-4.08 0V2.4A2.04 2.04 0 0 1 64 .38z" fill="#999999" transform="rotate(144 64 64)"/><path d="M64 .37a2.04 2.04 0 0 1 2.04 2.04v41.1a2.04 2.04 0 0 1-4.08 0V2.4A2.04 2.04 0 0 1 64 .38z" fill="#8c8c8c" transform="rotate(162 64 64)"/><path d="M64 .37a2.04 2.04 0 0 1 2.04 2.04v41.1a2.04 2.04 0 0 1-4.08 0V2.4A2.04 2.04 0 0 1 64 .38z" fill="#7f7f7f" transform="rotate(180 64 64)"/><path d="M64 .37a2.04 2.04 0 0 1 2.04 2.04v41.1a2.04 2.04 0 0 1-4.08 0V2.4A2.04 2.04 0 0 1 64 .38z" fill="#737373" transform="rotate(198 64 64)"/><path d="M64 .37a2.04 2.04 0 0 1 2.04 2.04v41.1a2.04 2.04 0 0 1-4.08 0V2.4A2.04 2.04 0 0 1 64 .38z" fill="#666666" transform="rotate(216 64 64)"/><path d="M64 .37a2.04 2.04 0 0 1 2.04 2.04v41.1a2.04 2.04 0 0 1-4.08 0V2.4A2.04 2.04 0 0 1 64 .38z" fill="#595959" transform="rotate(234 64 64)"/><path d="M64 .37a2.04 2.04 0 0 1 2.04 2.04v41.1a2.04 2.04 0 0 1-4.08 0V2.4A2.04 2.04 0 0 1 64 .38z" fill="#4c4c4c" transform="rotate(252 64 64)"/><path d="M64 .37a2.04 2.04 0 0 1 2.04 2.04v41.1a2.04 2.04 0 0 1-4.08 0V2.4A2.04 2.04 0 0 1 64 .38z" fill="#404040" transform="rotate(270 64 64)"/><path d="M64 .37a2.04 2.04 0 0 1 2.04 2.04v41.1a2.04 2.04 0 0 1-4.08 0V2.4A2.04 2.04 0 0 1 64 .38z" fill="#333333" transform="rotate(288 64 64)"/><path d="M64 .37a2.04 2.04 0 0 1 2.04 2.04v41.1a2.04 2.04 0 0 1-4.08 0V2.4A2.04 2.04 0 0 1 64 .38z" fill="#262626" transform="rotate(306 64 64)"/><path d="M64 .37a2.04 2.04 0 0 1 2.04 2.04v41.1a2.04 2.04 0 0 1-4.08 0V2.4A2.04 2.04 0 0 1 64 .38z" fill="#191919" transform="rotate(324 64 64)"/><path d="M64 .37a2.04 2.04 0 0 1 2.04 2.04v41.1a2.04 2.04 0 0 1-4.08 0V2.4A2.04 2.04 0 0 1 64 .38z" fill="#0d0d0d" transform="rotate(342 64 64)"/><animateTransform attributeName="transform" type="rotate" values="0 64 64;18 64 64;36 64 64;54 64 64;72 64 64;90 64 64;108 64 64;126 64 64;144 64 64;162 64 64;180 64 64;198 64 64;216 64 64;234 64 64;252 64 64;270 64 64;288 64 64;306 64 64;324 64 64;342 64 64" calcMode="discrete" dur="1800ms" repeatCount="indefinite"></animateTransform></g></svg>